<?xml version="1.0" standalone="no"?>
<!DOCTYPE svg PUBLIC "-//W3C//DTD SVG 20010904//EN"
 "http://www.w3.org/TR/2001/REC-SVG-20010904/DTD/svg10.dtd">
<svg version="1.0" xmlns="http://www.w3.org/2000/svg"
 width="2000.000000pt" height="2000.000000pt" viewBox="0 0 2000.000000 2000.000000"
 preserveAspectRatio="xMidYMid meet">
<metadata>
Created by potrace 1.11, written by Peter Selinger 2001-2013
</metadata>
<g transform="translate(0.000000,2000.000000) scale(0.100000,-0.100000)"
fill="#000000" stroke="none">
<path d="M7610 16230 c-315 -24 -603 -104 -890 -246 -366 -182 -671 -444 -905
-779 -89 -128 -2324 -4001 -2406 -4170 -107 -221 -176 -442 -215 -697 -22
-141 -25 -497 -6 -638 39 -282 142 -607 260 -820 118 -215 2286 -3962 2337
-4040 373 -571 991 -957 1690 -1057 123 -17 252 -18 2535 -18 l2405 0 140 23
c279 44 486 110 727 229 372 184 691 462 918 798 89 131 2322 4007 2391 4150
107 221 175 442 215 697 25 156 25 507 1 669 -33 224 -100 452 -192 659 -43
97 -75 156 -424 759 l-169 294 256 149 c142 82 270 162 286 178 l29 29 71 -72
c122 -123 258 -186 422 -195 307 -16 574 184 650 488 24 94 15 262 -18 350
-28 76 -1209 2129 -1272 2210 -117 154 -347 254 -542 236 -156 -14 -280 -73
-395 -186 -133 -131 -198 -301 -186 -484 6 -94 21 -154 55 -224 l19 -40 -41
-11 c-23 -6 -156 -76 -295 -156 -140 -80 -258 -144 -262 -143 -5 2 -124 203
-265 448 -274 475 -346 591 -441 710 -376 473 -912 781 -1535 883 l-133 21
-2355 2 c-1295 1 -2402 -2 -2460 -6z m4836 -1015 c208 -36 440 -135 604 -259
99 -74 236 -213 302 -306 65 -93 2319 -4001 2356 -4085 40 -94 77 -213 98
-321 27 -133 24 -376 -5 -514 -45 -212 -85 -302 -281 -640 -73 -124 -577 -997
-1122 -1940 -545 -943 -1014 -1749 -1042 -1789 -192 -280 -502 -485 -847 -563
l-104 -23 -2405 0 c-2259 0 -2410 1 -2487 18 -159 34 -338 104 -458 179 -154
97 -328 261 -418 396 -57 86 -2265 3908 -2319 4015 -95 189 -141 391 -141 617
0 170 18 288 68 437 44 133 72 185 301 583 1179 2048 2065 3577 2102 3630 66
93 203 232 302 306 104 79 314 185 435 219 196 56 52 53 2606 54 2078 1 2377
-1 2455 -14z m3621 -231 c23 -13 53 -39 66 -57 32 -42 1193 -2055 1207 -2091
37 -98 -15 -227 -113 -278 -63 -33 -158 -31 -217 3 -25 15 -52 35 -61 45 -26
29 -1204 2074 -1217 2113 -42 121 39 258 173 292 46 12 115 0 162 -27z m-197
-1606 c223 -385 406 -706 407 -712 2 -6 -100 -70 -227 -143 l-229 -131 -79
136 c-535 925 -742 1286 -738 1290 8 7 450 262 456 262 3 0 187 -316 410 -702z"/>
</g>
</svg>
